# xmcd CD database file
#
# Track frame offsets:
#	150
#	13528
#	26289
#	36798
#	55539
#	72562
#	90536
#	104416
#	117651
#	127225
#	139366
#	170979
#	185725
#	220704
#	247775
#	281344
#	290748
#	311615
#
# Disc length: 4318 seconds
#
# Revision: 0
# Processed by: cddbd v1.5.2PL0 Copyright (c) Steve Scherf et al.
# Submitted via: CDex 1.79
#
DISCID=1210dc12
DTITLE=varios - the best of blues 2
DYEAR=1900
DGENRE=Blues
TTITLE0=Got my mojo working - Muddy Waters
TTITLE1=Spoonful -Etta James
TTITLE2=Suzy Q- Dale Hawkins
TTITLE3=Im ready - Muddy Waters
TTITLE4=Sitting on top of the world - Howlin Wolf
TTITLE5=Big Boss man - Koko Taylor
TTITLE6=Walking the blues - Willie Dixon
TTITLE7=Dust my broom - Elmore James
TTITLE8=Built for comfort - Howling Wolf
TTITLE9=Bright lights, bright city - Jimmy Reed
TTITLE10=God Morning little school girl - Ten years after
TTITLE11=Sweet home Chicago - Jean Milteau
TTITLE12=St James Infirmary - Joe Cocker
TTITLE13=Early in the morning - Luther Allison
TTITLE14=Crossroads (Live) - Calvin Russell
TTITLE15=Big road blues - Canned Heat 
TTITLE16=The sky is crying - Steve Ray Vaughan
TTITLE17=Got my mojo working - Canned Heat
EXTD=
EXTT0=
EXTT1=
EXTT2=
EXTT3=
EXTT4=
EXTT5=
EXTT6=
EXTT7=
EXTT8=
EXTT9=
EXTT10=
EXTT11=
EXTT12=
EXTT13=
EXTT14=
EXTT15=
EXTT16=
EXTT17=
PLAYORDER=
